<?xml version="1.0" encoding="utf-8"?>
<!-- Generator: Adobe Illustrator 27.5.0, SVG Export Plug-In . SVG Version: 6.00 Build 0)  -->
<!DOCTYPE svg PUBLIC "-//W3C//DTD SVG 1.1//EN" "http://www.w3.org/Graphics/SVG/1.1/DTD/svg11.dtd" [
	<!ENTITY ns_extend "http://ns.adobe.com/Extensibility/1.0/">
	<!ENTITY ns_ai "http://ns.adobe.com/AdobeIllustrator/10.0/">
	<!ENTITY ns_graphs "http://ns.adobe.com/Graphs/1.0/">
	<!ENTITY ns_vars "http://ns.adobe.com/Variables/1.0/">
	<!ENTITY ns_imrep "http://ns.adobe.com/ImageReplacement/1.0/">
	<!ENTITY ns_sfw "http://ns.adobe.com/SaveForWeb/1.0/">
	<!ENTITY ns_custom "http://ns.adobe.com/GenericCustomNamespace/1.0/">
	<!ENTITY ns_adobe_xpath "http://ns.adobe.com/XPath/1.0/">
]>
<svg version="1.1" id="Слой_2" xmlns:x="&ns_extend;" xmlns:i="&ns_ai;" xmlns:graph="&ns_graphs;"
	 xmlns="http://www.w3.org/2000/svg" xmlns:xlink="http://www.w3.org/1999/xlink" x="0px" y="0px" viewBox="0 0 368.5 104.2"
	 style="enable-background:new 0 0 368.5 104.2;" xml:space="preserve">
<style type="text/css">
	.st0{fill:#FFFFFF;}
</style>
<metadata>
	<sfw  xmlns="&ns_sfw;">
		<slices></slices>
		<sliceSourceBounds  bottomLeftOrigin="true" height="104.2" width="368.5" x="236.7" y="-824.6"></sliceSourceBounds>
	</sfw>
</metadata>
<g>
	<g>
		<polygon class="st0" points="109.8,36.9 126.4,36.9 126.4,79 141.7,79 141.7,36.9 158.1,36.9 158.1,25.1 109.8,25.1 		"/>
		<polygon class="st0" points="320.2,25.1 320.2,36.9 336.8,36.9 336.8,79 352,79 352,36.9 368.5,36.9 368.5,25.1 		"/>
		<rect x="164.2" y="25.1" class="st0" width="43.3" height="11.8"/>
		<polygon class="st0" points="286,57.4 309.9,57.4 309.9,46 270.9,46 270.9,79 314.2,79 314.2,67.3 286,67.3 		"/>
		<polygon class="st0" points="263,25.1 249.9,25.1 249.9,53.9 226.1,25.1 213.5,25.1 213.5,67.3 179.3,67.3 179.3,57.4 203.2,57.4 
			203.2,46 164.2,46 164.2,79 213.5,79 215.4,79 228.5,79 228.5,50.3 252.3,79 264.8,79 264.8,36.9 314.2,36.9 314.2,25.1 
			264.8,25.1 		"/>
	</g>
	<g>
		<path class="st0" d="M46.3,56.5l-10.4-6l48.3-27.9l-9.1-5.3l-5.2-3L0,54.7v5.3v11.2v6.9l45.1,26l34.7-20l10.4-6v-2.4V59.9V48v-2.8
			V31.1L46.3,56.5z M75.8,68.3L45.1,86L9.7,65.6l10.4-6l10.4,6l0,0L45.1,74l30.7-17.7V68.3z"/>
		<polygon class="st0" points="45.1,0 0,26 0,42.7 59.5,8.3 		"/>
	</g>
</g>
</svg>
